<svg preserveAspectRatio="none" width="100%" height="100%" overflow="visible" style="display: block;" viewBox="0 0 44.0004 44.0011" fill="none" xmlns="http://www.w3.org/2000/svg">
<g id="Frame 14512">
<rect x="0.000355114" y="0.00106534" width="44" height="44" rx="10.6667" fill="url(#paint0_linear_0_6)"/>
<path id="Vector" fill-rule="evenodd" clip-rule="evenodd" d="M32.266 1.834H11.734C9.65 1.834 8.196 1.834 7.066 1.928C5.956 2.018 5.32 2.188 4.836 2.432C3.80089 2.95934 2.95934 3.80089 2.432 4.836C2.186 5.32 2.018 5.956 1.928 7.066C1.834 8.196 1.834 9.65 1.834 11.734V32.266C1.834 34.35 1.834 35.802 1.928 36.934C2.018 38.044 2.188 38.68 2.432 39.164C2.95934 40.1991 3.80089 41.0407 4.836 41.568C5.32 41.814 5.956 41.982 7.066 42.072C8.196 42.166 9.65 42.166 11.734 42.166H32.266C34.35 42.166 35.802 42.166 36.934 42.072C38.044 41.982 38.68 41.812 39.164 41.568C40.1991 41.0407 41.0407 40.1991 41.568 39.164C41.814 38.68 41.982 38.044 42.072 36.934C42.166 35.802 42.166 34.35 42.166 32.266V11.734C42.166 9.65 42.166 8.196 42.072 7.066C41.982 5.956 41.812 5.32 41.568 4.836C41.0407 3.80089 40.1991 2.95934 39.164 2.432C38.68 2.186 38.044 2.018 36.934 1.928C35.802 1.834 34.35 1.834 32.266 1.834ZM0.8 4.004C-5.96046e-08 5.572 0 7.626 0 11.734V32.266C0 36.374 -5.96046e-08 38.426 0.8 39.996C1.502 41.376 2.624 42.496 4.004 43.2C5.572 44 7.626 44 11.734 44H32.266C36.374 44 38.426 44 39.996 43.2C41.3753 42.4968 42.4968 41.3753 43.2 39.996C44 38.428 44 36.374 44 32.266V11.734C44 7.626 44 5.574 43.2 4.004C42.497 2.62458 41.3754 1.50304 39.996 0.8C38.428 -5.96046e-08 36.374 0 32.266 0H11.734C7.626 0 5.574 -5.96046e-08 4.004 0.8C2.624 1.502 1.504 2.624 0.8 4.004Z" fill="url(#paint1_linear_0_6)"/>
<path id="Vector_2" d="M19.2504 7.32955H7.33435C6.84821 7.32955 6.38198 7.52267 6.03823 7.86642C5.69447 8.21017 5.50136 8.6764 5.50136 9.16255C5.50136 9.64869 5.69447 10.1149 6.03823 10.4587C6.38198 10.8024 6.84821 10.9955 7.33435 10.9955H19.2504C19.7365 10.9955 20.2027 10.8024 20.5465 10.4587C20.8902 10.1149 21.0834 9.64869 21.0834 9.16255C21.0834 8.6764 20.8902 8.21017 20.5465 7.86642C20.2027 7.52267 19.7365 7.32955 19.2504 7.32955ZM19.2504 13.7455H7.33435C6.84821 13.7455 6.38198 13.9387 6.03823 14.2824C5.69447 14.6262 5.50136 15.0924 5.50136 15.5785C5.50136 16.0647 5.69447 16.5309 6.03823 16.8747C6.38198 17.2184 6.84821 17.4115 7.33435 17.4115H19.2504C19.7365 17.4115 20.2027 17.2184 20.5465 16.8747C20.8902 16.5309 21.0834 16.0647 21.0834 15.5785C21.0834 15.0924 20.8902 14.6262 20.5465 14.2824C20.2027 13.9387 19.7365 13.7455 19.2504 13.7455ZM19.2504 20.1615H7.33435C6.84795 20.1615 6.38146 20.3548 6.03752 20.6987C5.69358 21.0427 5.50036 21.5091 5.50036 21.9955C5.50036 22.482 5.69358 22.9484 6.03752 23.2924C6.38146 23.6363 6.84795 23.8295 7.33435 23.8295H19.2504C19.7368 23.8295 20.2032 23.6363 20.5472 23.2924C20.8911 22.9484 21.0844 22.482 21.0844 21.9955C21.0844 21.5091 20.8911 21.0427 20.5472 20.6987C20.2032 20.3548 19.7368 20.1615 19.2504 20.1615ZM19.2504 26.5795H7.33435C7.09364 26.5795 6.85529 26.627 6.6329 26.7191C6.41051 26.8112 6.20844 26.9462 6.03823 27.1164C5.86802 27.2866 5.733 27.4887 5.64088 27.7111C5.54877 27.9335 5.50136 28.1718 5.50136 28.4125C5.50136 28.6533 5.54877 28.8916 5.64088 29.114C5.733 29.3364 5.86802 29.5385 6.03823 29.7087C6.20844 29.8789 6.41051 30.0139 6.6329 30.106C6.85529 30.1981 7.09364 30.2455 7.33435 30.2455H19.2504C19.4911 30.2455 19.7294 30.1981 19.9518 30.106C20.1742 30.0139 20.3763 29.8789 20.5465 29.7087C20.7167 29.5385 20.8517 29.3364 20.9438 29.114C21.0359 28.8916 21.0834 28.6533 21.0834 28.4125C21.0834 28.1718 21.0359 27.9335 20.9438 27.7111C20.8517 27.4887 20.7167 27.2866 20.5465 27.1164C20.3763 26.9462 20.1742 26.8112 19.9518 26.7191C19.7294 26.627 19.4911 26.5795 19.2504 26.5795ZM19.2504 32.9955H7.33435C6.84821 32.9955 6.38198 33.1887 6.03823 33.5324C5.69447 33.8762 5.50136 34.3424 5.50136 34.8285C5.50136 35.3147 5.69447 35.7809 6.03823 36.1247C6.38198 36.4684 6.84821 36.6615 7.33435 36.6615H19.2504C19.7365 36.6615 20.2027 36.4684 20.5465 36.1247C20.8902 35.7809 21.0834 35.3147 21.0834 34.8285C21.0834 34.3424 20.8902 33.8762 20.5465 33.5324C20.2027 33.1887 19.7365 32.9955 19.2504 32.9955ZM36.6664 7.32955H24.7504C24.2642 7.32955 23.798 7.52267 23.4542 7.86642C23.1105 8.21017 22.9174 8.6764 22.9174 9.16255C22.9174 9.64869 23.1105 10.1149 23.4542 10.4587C23.798 10.8024 24.2642 10.9955 24.7504 10.9955H36.6664C37.1525 10.9955 37.6187 10.8024 37.9625 10.4587C38.3062 10.1149 38.4994 9.64869 38.4994 9.16255C38.4994 8.6764 38.3062 8.21017 37.9625 7.86642C37.6187 7.52267 37.1525 7.32955 36.6664 7.32955ZM36.6664 13.7455H24.7504C24.2642 13.7455 23.798 13.9387 23.4542 14.2824C23.1105 14.6262 22.9174 15.0924 22.9174 15.5785C22.9174 16.0647 23.1105 16.5309 23.4542 16.8747C23.798 17.2184 24.2642 17.4115 24.7504 17.4115H36.6664C37.1525 17.4115 37.6187 17.2184 37.9625 16.8747C38.3062 16.5309 38.4994 16.0647 38.4994 15.5785C38.4994 15.0924 38.3062 14.6262 37.9625 14.2824C37.6187 13.9387 37.1525 13.7455 36.6664 13.7455ZM36.6664 20.1615H24.7504C24.2639 20.1615 23.7975 20.3548 23.4535 20.6987C23.1096 21.0427 22.9164 21.5091 22.9164 21.9955C22.9164 22.482 23.1096 22.9484 23.4535 23.2924C23.7975 23.6363 24.2639 23.8295 24.7504 23.8295H36.6664C37.1528 23.8295 37.6192 23.6363 37.9632 23.2924C38.3071 22.9484 38.5004 22.482 38.5004 21.9955C38.5004 21.5091 38.3071 21.0427 37.9632 20.6987C37.6192 20.3548 37.1528 20.1615 36.6664 20.1615ZM36.6664 26.5795H24.7504C24.5096 26.5795 24.2713 26.627 24.0489 26.7191C23.8265 26.8112 23.6244 26.9462 23.4542 27.1164C23.284 27.2866 23.149 27.4887 23.0569 27.7111C22.9648 27.9335 22.9174 28.1718 22.9174 28.4125C22.9174 28.6533 22.9648 28.8916 23.0569 29.114C23.149 29.3364 23.284 29.5385 23.4542 29.7087C23.6244 29.8789 23.8265 30.0139 24.0489 30.106C24.2713 30.1981 24.5096 30.2455 24.7504 30.2455H36.6664C36.9071 30.2455 37.1454 30.1981 37.3678 30.106C37.5902 30.0139 37.7923 29.8789 37.9625 29.7087C38.1327 29.5385 38.2677 29.3364 38.3598 29.114C38.4519 28.8916 38.4994 28.6533 38.4994 28.4125C38.4994 28.1718 38.4519 27.9335 38.3598 27.7111C38.2677 27.4887 38.1327 27.2866 37.9625 27.1164C37.7923 26.9462 37.5902 26.8112 37.3678 26.7191C37.1454 26.627 36.9071 26.5795 36.6664 26.5795ZM36.6664 32.9955H24.7504C24.2642 32.9955 23.798 33.1887 23.4542 33.5324C23.1105 33.8762 22.9174 34.3424 22.9174 34.8285C22.9174 35.3147 23.1105 35.7809 23.4542 36.1247C23.798 36.4684 24.2642 36.6615 24.7504 36.6615H36.6664C37.1525 36.6615 37.6187 36.4684 37.9625 36.1247C38.3062 35.7809 38.4994 35.3147 38.4994 34.8285C38.4994 34.3424 38.3062 33.8762 37.9625 33.5324C37.6187 33.1887 37.1525 32.9955 36.6664 32.9955Z" fill="var(--fill-0, #AEFFD8)" fill-opacity="0.51"/>
</g>
<defs>
<linearGradient id="paint0_linear_0_6" x1="26.267" y1="-15.3923" x2="60.9606" y2="49.0315" gradientUnits="userSpaceOnUse">
<stop offset="0.220853" stop-color="#1265FF"/>
<stop offset="0.728478" stop-color="#69CDEB"/>
<stop offset="1" stop-color="#46F5A0"/>
</linearGradient>
<linearGradient id="paint1_linear_0_6" x1="26.2667" y1="-15.3934" x2="60.9603" y2="49.0304" gradientUnits="userSpaceOnUse">
<stop offset="0.220853" stop-color="#1265FF"/>
<stop offset="0.728478" stop-color="#69CDEB"/>
<stop offset="1" stop-color="#46F5A0"/>
</linearGradient>
</defs>
</svg>
