<svg width="121" height="170" viewBox="0 0 121 170" fill="none" xmlns="http://www.w3.org/2000/svg">
<path d="M84.5293 8.1709C79.73 15.8349 75.4984 23.9444 71.8838 32.3936C71.3568 33.6095 72.6807 34.8062 73.8359 34.1572C83.876 28.513 97.4045 23.0922 116.324 18.876L119.294 32.4521C100.117 36.7487 87.1933 42.2399 77.9756 47.8594C76.9241 48.4984 77.1882 50.0574 78.3359 50.3848V50.3857C93.1503 54.6262 107.398 62.2489 120.295 72.9902L111.408 83.6494C102.928 76.6019 90.4963 68.3611 74.8291 63.8262L74.8242 63.8252L74.707 63.7969C73.5055 63.5644 72.5656 64.9429 73.3232 65.9785V65.9795C82.9016 79.2278 88.6404 94.0046 91.8066 113.409L78.1357 115.645C75.3265 98.4934 70.3254 85.4686 61.8848 73.873H61.8838C61.1616 72.8758 59.6242 73.235 59.3916 74.4229L59.3896 74.4297C53.7961 105.44 55.1539 138.448 63.9893 169.5H49.6299C41.5821 139.057 40.1911 106.973 45.0303 76.4658L45.0312 76.4609C45.2152 75.2214 43.7745 74.3461 42.7939 75.1689L42.7051 75.249C36.2083 81.4907 29.3157 90.2016 23.9893 100.251L11.7266 93.7803C18.5807 80.8146 28.3651 68.6964 38.0986 60.7295L38.1016 60.7266C39.095 59.9009 38.532 58.223 37.1943 58.2617C25.1209 58.5849 15.2562 62.0511 6.36914 66.0664L0.661133 53.3809C11.6565 48.4694 24.6666 43.9761 41.0752 44.3564V44.3574L41.0771 44.3564L41.0791 44.3574V44.3564C42.2909 44.3913 42.9571 42.9262 42.1377 42.043L42.0537 41.96C37.2854 37.4925 31.51 34.0755 24.6445 31.5977L29.2109 18.4551C39.1222 22.0074 47.434 27.3391 54.0371 34.3408C54.7392 35.085 55.9585 34.8464 56.3281 33.8887V33.8877C60.8006 22.1966 66.3157 11.0557 72.835 0.692383L84.5293 8.1709Z" fill="white"/>
</svg>
