<svg preserveAspectRatio="none" width="100%" height="100%" overflow="visible" style="display: block;" viewBox="0 0 28.9177 48.0001" fill="none" xmlns="http://www.w3.org/2000/svg">
<g id="Layer_x0020_1">
<path id="Vector" d="M10.4628 6.57022H13.3338V4.41013C13.3338 3.78883 13.8375 3.28512 14.4588 3.28512C15.0801 3.28512 15.5838 3.78883 15.5838 4.41013V6.57022H18.4548V2.24992H10.4629L10.4628 6.57022ZM20.1246 44.3408V46.8751C20.1246 47.4964 19.6209 48.0001 18.9996 48.0001H9.91804C9.29674 48.0001 8.79304 47.4964 8.79304 46.8751V44.3408C6.47548 44.1395 4.3867 43.109 2.82742 41.5497C1.083 39.8054 5.95117e-05 37.3979 5.95117e-05 34.7493V33.3116H28.9177V34.7493C28.9177 37.3979 27.8348 39.8054 26.0904 41.5497C24.5311 43.109 22.4421 44.1396 20.1246 44.3408ZM20.7048 6.67485C22.79 6.985 24.6624 7.96971 26.0903 9.39767C27.8347 11.1421 28.9177 13.5496 28.9177 16.1982V17.6358H0V16.1982C0 13.5495 1.08293 11.1421 2.82736 9.39767C4.25532 7.96971 6.12765 6.98511 8.21276 6.67485V1.125C8.21276 0.503704 8.71646 0 9.33776 0H19.5797C20.201 0 20.7047 0.503704 20.7047 1.125L20.7048 6.67485ZM28.9177 18.7608V32.1866H0V18.7608H28.9177Z" fill="url(#paint0_linear_0_4)"/>
</g>
<defs>
<linearGradient id="paint0_linear_0_4" x1="17.263" y1="-16.7928" x2="62.3105" y2="33.6024" gradientUnits="userSpaceOnUse">
<stop offset="0.220853" stop-color="#1265FF"/>
<stop offset="0.728478" stop-color="#69CDEB"/>
<stop offset="1" stop-color="#46F5A0"/>
</linearGradient>
</defs>
</svg>
