<svg preserveAspectRatio="none" width="100%" height="100%" overflow="visible" style="display: block;" viewBox="0 0 48 48" fill="none" xmlns="http://www.w3.org/2000/svg">
<g id="Headset">
<path id="Vector" d="M43.5 23.9994V38.9994C43.5 40.9885 42.7098 42.8962 41.3033 44.3027C39.8968 45.7092 37.9891 46.4994 36 46.4994H25.5C25.1022 46.4994 24.7206 46.3413 24.4393 46.06C24.158 45.7787 24 45.3972 24 44.9994C24 44.6016 24.158 44.22 24.4393 43.9387C24.7206 43.6574 25.1022 43.4994 25.5 43.4994H36C37.1935 43.4994 38.3381 43.0253 39.182 42.1814C40.0259 41.3374 40.5 40.1929 40.5 38.9994H36C34.8065 38.9994 33.6619 38.5253 32.818 37.6814C31.9741 36.8374 31.5 35.6929 31.5 34.4994V26.9994C31.5 25.8059 31.9741 24.6613 32.818 23.8174C33.6619 22.9735 34.8065 22.4994 36 22.4994H40.4344C40.1505 19.3811 38.9853 16.408 37.0747 13.9273C35.1642 11.4466 32.5873 9.56077 29.6449 8.49C26.7026 7.41923 23.5163 7.20777 20.4582 7.88032C17.4002 8.55287 14.5966 10.0817 12.375 12.2881C9.61248 15.0142 7.9086 18.6333 7.5675 22.4994H12C13.1935 22.4994 14.3381 22.9735 15.182 23.8174C16.0259 24.6613 16.5 25.8059 16.5 26.9994V34.4994C16.5 35.6929 16.0259 36.8374 15.182 37.6814C14.3381 38.5253 13.1935 38.9994 12 38.9994H9C7.80653 38.9994 6.66193 38.5253 5.81802 37.6814C4.97411 36.8374 4.5 35.6929 4.5 34.4994V23.9994C4.50421 20.1367 5.65429 16.3621 7.80469 13.1533C9.95509 9.94454 13.0091 7.44588 16.5802 5.9736C20.1513 4.50131 24.079 4.12159 27.866 4.8825C31.653 5.64341 35.1291 7.51074 37.8544 10.2481C39.6537 12.0562 41.0786 14.2015 42.0473 16.5612C43.0161 18.9209 43.5098 21.4486 43.5 23.9994Z" fill="url(#paint0_linear_0_14)"/>
</g>
<defs>
<linearGradient id="paint0_linear_0_14" x1="27.7819" y1="-10.1935" x2="62.2086" y2="49.1695" gradientUnits="userSpaceOnUse">
<stop offset="0.220853" stop-color="#1265FF"/>
<stop offset="0.728478" stop-color="#69CDEB"/>
<stop offset="1" stop-color="#46F5A0"/>
</linearGradient>
</defs>
</svg>
