<svg preserveAspectRatio="none" width="100%" height="100%" overflow="visible" style="display: block;" viewBox="0 0 41 73.6801" fill="none" xmlns="http://www.w3.org/2000/svg">
<g id="Group">
<path id="Vector" d="M18.6369 13.4902C18.1373 16.2382 16.2636 18.1119 13.3907 18.1119C11.2672 16.2382 12.6412 9.99276 12.6412 9.99276C12.6412 9.99276 11.1423 12.6159 11.2672 17.7372C8.51923 16.9877 7.39504 14.3646 7.89468 11.6166C9.14378 4.87147 15.5142 0 15.5142 0C15.5142 0 19.7611 6.37039 18.6369 13.4902Z" fill="url(#paint0_linear_0_17)"/>
<path id="Vector_2" d="M14.1402 40.0959C16.5135 42.4692 17.2629 45.467 15.2644 48.215C12.0167 49.0894 6.77051 43.7183 6.77051 43.7183C6.77051 43.7183 8.39434 46.9659 13.5156 50.2136C11.0174 52.462 7.64488 51.9623 5.14669 49.589C-0.349332 44.5927 -0.349332 37.3479 0.275216 33.6006C4.77196 39.0966 9.76834 35.4743 14.1402 40.0959Z" fill="url(#paint1_linear_0_17)"/>
<path id="Vector_3" d="M14.0152 26.1061C14.8895 29.3538 14.265 32.2267 11.1422 33.8505C7.89458 33.1011 5.77112 25.8563 5.77112 25.8563C5.77112 25.8563 5.64621 29.4787 8.76895 34.7249C5.5213 35.4744 2.77329 33.4758 1.6491 30.2282C-0.849087 23.2332 2.52347 16.8628 4.77184 13.865C6.14585 20.8599 12.2664 20.1105 14.0152 26.1061Z" fill="url(#paint2_linear_0_17)"/>
<path id="Vector_4" d="M21.3848 51.0882C24.6325 51.7127 27.0058 53.7113 26.8809 57.2087C24.7574 59.8318 17.3877 58.3329 17.3877 58.3329C17.3877 58.3329 20.6354 60.0817 26.631 59.8318C25.8816 63.0795 22.7588 64.5784 19.3863 64.0788C12.0166 62.9546 8.01952 57.0838 6.27079 53.7113C13.0159 55.7098 15.1394 49.8391 21.3848 51.0882Z" fill="url(#paint3_linear_0_17)"/>
<path id="Vector_5" d="M33.5012 60.5811C36.8737 60.3313 39.6217 61.5804 40.4961 64.953C39.1221 67.9508 31.6275 68.5754 31.6275 68.5754C31.6275 68.5754 35.2499 69.4497 40.9957 67.5761C41.1206 70.9486 38.4975 73.197 35.125 73.5717C27.7553 74.4461 22.2593 69.8244 19.7611 67.0764C26.6311 67.2013 27.2557 61.0808 33.5012 60.5811Z" fill="url(#paint4_linear_0_17)"/>
</g>
<defs>
<linearGradient id="paint0_linear_0_17" x1="13.3029" y1="0" x2="13.3029" y2="18.1119" gradientUnits="userSpaceOnUse">
<stop stop-color="#A79900"/>
<stop offset="1" stop-color="#D5C408"/>
</linearGradient>
<linearGradient id="paint1_linear_0_17" x1="8.20783" y1="33.6006" x2="8.20783" y2="51.6599" gradientUnits="userSpaceOnUse">
<stop stop-color="#A79900"/>
<stop offset="1" stop-color="#D5C408"/>
</linearGradient>
<linearGradient id="paint2_linear_0_17" x1="7.57143" y1="13.865" x2="7.57143" y2="34.8822" gradientUnits="userSpaceOnUse">
<stop stop-color="#A79900"/>
<stop offset="1" stop-color="#D5C408"/>
</linearGradient>
<linearGradient id="paint3_linear_0_17" x1="16.5782" y1="50.912" x2="16.5782" y2="64.1729" gradientUnits="userSpaceOnUse">
<stop stop-color="#A79900"/>
<stop offset="1" stop-color="#D5C408"/>
</linearGradient>
<linearGradient id="paint4_linear_0_17" x1="30.3806" y1="60.5503" x2="30.3806" y2="73.6801" gradientUnits="userSpaceOnUse">
<stop stop-color="#A79900"/>
<stop offset="1" stop-color="#D5C408"/>
</linearGradient>
</defs>
</svg>
