<svg width="24" height="24" viewBox="0 0 24 24" fill="none" xmlns="http://www.w3.org/2000/svg">
<path d="M20.985 4.41617C20.9628 4.05047 20.8075 3.70556 20.5484 3.44649C20.2894 3.18743 19.9445 3.03214 19.5788 3.00992C18.3994 2.9396 15.3853 3.04742 12.8841 5.54773L12.4388 5.99867H6.97033C6.77259 5.99755 6.5766 6.03577 6.39377 6.11109C6.21093 6.18641 6.0449 6.29734 5.90533 6.43742L2.6897 9.65492C2.4925 9.85199 2.35412 10.1001 2.29009 10.3715C2.22606 10.6428 2.23893 10.9266 2.32724 11.1911C2.41555 11.4555 2.57581 11.6901 2.79003 11.8685C3.00425 12.0469 3.26396 12.1621 3.54001 12.2012L7.14658 12.7046L11.2913 16.8493L11.7947 20.4577C11.8334 20.7338 11.9486 20.9935 12.1272 21.2076C12.3058 21.4216 12.5407 21.5814 12.8053 21.669C12.9595 21.7205 13.1209 21.7467 13.2835 21.7468C13.4802 21.7472 13.6752 21.7086 13.857 21.6333C14.0388 21.558 14.2039 21.4474 14.3428 21.308L17.5603 18.0924C17.7004 17.9528 17.8113 17.7868 17.8867 17.604C17.962 17.4211 18.0002 17.2252 17.9991 17.0274V11.559L18.4463 11.1118C20.9475 8.61054 21.0553 5.59648 20.985 4.41617ZM6.97033 7.49867H10.9388L7.23283 11.2037L3.74908 10.718L6.97033 7.49867ZM13.9463 6.61273C14.6669 5.88761 15.5341 5.32461 16.4897 4.96134C17.4453 4.59807 18.4674 4.44289 19.4878 4.50617C19.5535 5.52709 19.4 6.55025 19.0374 7.50688C18.6749 8.46352 18.1118 9.33148 17.386 10.0524L11.9991 15.4374L8.56033 11.9987L13.9463 6.61273ZM16.4991 17.0274L13.2806 20.2487L12.7941 16.764L16.4991 13.059V17.0274ZM9.54658 17.918C9.1247 18.8424 7.71376 20.9987 3.74908 20.9987C3.55016 20.9987 3.3594 20.9197 3.21875 20.779C3.07809 20.6383 2.99908 20.4476 2.99908 20.2487C2.99908 16.284 5.15533 14.873 6.0797 14.4502C6.16933 14.4094 6.26613 14.3865 6.36458 14.3831C6.46302 14.3796 6.56119 14.3956 6.65346 14.43C6.74574 14.4645 6.83033 14.5168 6.90239 14.584C6.97445 14.6512 7.03258 14.7319 7.07345 14.8215C7.11433 14.9111 7.13715 15.0079 7.14061 15.1064C7.14407 15.2048 7.12811 15.303 7.09364 15.3952C7.05917 15.4875 7.00685 15.5721 6.93969 15.6442C6.87253 15.7162 6.79183 15.7744 6.7022 15.8152C6.09939 16.0899 4.76908 16.974 4.5347 19.463C7.02376 19.2287 7.9097 17.8984 8.18251 17.2955C8.22339 17.2059 8.28152 17.1252 8.35358 17.0581C8.42564 16.9909 8.51022 16.9386 8.6025 16.9041C8.69478 16.8696 8.79294 16.8537 8.89139 16.8571C8.98984 16.8606 9.08664 16.8834 9.17626 16.9243C9.26589 16.9652 9.34659 17.0233 9.41375 17.0954C9.48092 17.1674 9.53323 17.252 9.5677 17.3443C9.60217 17.4366 9.61814 17.5347 9.61467 17.6332C9.61121 17.7316 9.58839 17.8284 9.54751 17.918H9.54658Z" fill="#3478F6"/>
</svg>
