<svg preserveAspectRatio="none" width="100%" height="100%" overflow="visible" style="display: block;" viewBox="0 0 48 48" fill="none" xmlns="http://www.w3.org/2000/svg">
<g id="Scroll">
<path id="Vector" d="M41.4 31.8C41.1404 31.6053 40.8246 31.5 40.5 31.5H39V12C39 10.4087 38.3679 8.88258 37.2426 7.75736C36.1174 6.63214 34.5913 6 33 6H7.5C5.9087 6 4.38258 6.63214 3.25736 7.75736C2.13214 8.88258 1.5 10.4087 1.5 12C1.5 14.5519 3.38438 16.0388 3.6 16.2C3.85893 16.3961 4.1752 16.5015 4.5 16.5C4.81262 16.4991 5.11717 16.4006 5.37106 16.2182C5.62496 16.0358 5.81553 15.7787 5.91612 15.4827C6.01671 15.1867 6.02231 14.8666 5.93213 14.5673C5.84194 14.268 5.66049 14.0043 5.41313 13.8131C5.40563 13.8037 4.5 13.0762 4.5 12C4.5 11.2044 4.81607 10.4413 5.37868 9.87868C5.94129 9.31607 6.70435 9 7.5 9C8.29565 9 9.05871 9.31607 9.62132 9.87868C10.1839 10.4413 10.5 11.2044 10.5 12V36C10.5 37.5913 11.1321 39.1174 12.2574 40.2426C13.3826 41.3679 14.9087 42 16.5 42H37.5C39.0913 42 40.6174 41.3679 41.7426 40.2426C42.8679 39.1174 43.5 37.5913 43.5 36C43.5 33.4481 41.625 31.9613 41.4 31.8ZM19.5 18H31.5C31.8978 18 32.2794 18.158 32.5607 18.4393C32.842 18.7206 33 19.1022 33 19.5C33 19.8978 32.842 20.2794 32.5607 20.5607C32.2794 20.842 31.8978 21 31.5 21H19.5C19.1022 21 18.7206 20.842 18.4393 20.5607C18.158 20.2794 18 19.8978 18 19.5C18 19.1022 18.158 18.7206 18.4393 18.4393C18.7206 18.158 19.1022 18 19.5 18ZM18 25.5C18 25.1022 18.158 24.7206 18.4393 24.4393C18.7206 24.158 19.1022 24 19.5 24H31.5C31.8978 24 32.2794 24.158 32.5607 24.4393C32.842 24.7206 33 25.1022 33 25.5C33 25.8978 32.842 26.2794 32.5607 26.5607C32.2794 26.842 31.8978 27 31.5 27H19.5C19.1022 27 18.7206 26.842 18.4393 26.5607C18.158 26.2794 18 25.8978 18 25.5ZM37.5 39H20.1956C20.7239 38.0886 21.0014 37.0535 21 36C21.0004 35.4914 20.9239 34.9857 20.7731 34.5H39.8981C40.2705 34.913 40.485 35.4442 40.5038 36C40.5038 36.3943 40.426 36.7847 40.275 37.1489C40.124 37.5131 39.9027 37.844 39.6237 38.1226C39.3448 38.4013 39.0136 38.6222 38.6492 38.7727C38.2848 38.9233 37.8943 39.0005 37.5 39Z" fill="url(#paint0_linear_0_17)"/>
</g>
<defs>
<linearGradient id="paint0_linear_0_17" x1="26.5727" y1="-6.59459" x2="52.4465" y2="49.459" gradientUnits="userSpaceOnUse">
<stop offset="0.220853" stop-color="#1265FF"/>
<stop offset="0.728478" stop-color="#69CDEB"/>
<stop offset="1" stop-color="#46F5A0"/>
</linearGradient>
</defs>
</svg>
