<svg width="30" height="33" viewBox="0 0 30 33" fill="none" xmlns="http://www.w3.org/2000/svg">
<path d="M3.425 0.407762C3.23703 0.201618 2.98549 0.0642807 2.71044 0.0176141C2.43539 -0.0290525 2.15264 0.0176337 1.90719 0.150241C1.66174 0.282848 1.4677 0.493754 1.35597 0.749384C1.24424 1.00501 1.22124 1.29067 1.29062 1.56089C0.899698 1.77696 0.573801 2.09383 0.346827 2.47853C0.119853 2.86323 9.21197e-05 3.30172 0 3.74839V12.4984C0 20.7359 3.9875 25.7281 7.33281 28.4656C10.9359 31.4125 14.5203 32.414 14.6766 32.4546C14.8914 32.5131 15.118 32.5131 15.3328 32.4546C15.5453 32.3968 20.2188 31.0828 24.2531 27.0296L26.5797 29.589C26.6895 29.7128 26.8227 29.8135 26.9717 29.8853C27.1207 29.9572 27.2824 29.9988 27.4476 30.0077C27.6128 30.0166 27.7781 29.9926 27.9339 29.9371C28.0898 29.8816 28.233 29.7958 28.3555 29.6845C28.4779 29.5733 28.577 29.4389 28.6471 29.289C28.7171 29.1392 28.7568 28.9769 28.7637 28.8117C28.7706 28.6464 28.7446 28.4814 28.6873 28.3262C28.63 28.1711 28.5424 28.0288 28.4297 27.9078L3.425 0.407762ZM14.9984 29.939C12.7881 29.1664 10.73 28.0131 8.91719 26.5312C4.65938 23.0468 2.5 18.3265 2.5 12.4984V3.74839H3.07969L22.5641 25.1781C20.4299 27.31 17.8453 28.9368 15 29.939H14.9984ZM30 3.74839V12.4984C30 15.714 29.3922 18.6875 28.1938 21.3406C28.0572 21.6427 27.8062 21.8782 27.4961 21.9952C27.1859 22.1123 26.8419 22.1013 26.5398 21.9648C26.2377 21.8283 26.0023 21.5773 25.8852 21.2671C25.7681 20.957 25.7791 20.613 25.9156 20.3109C26.9672 17.9843 27.5 15.3562 27.5 12.4984V3.74839H10.3937C10.0622 3.74839 9.74429 3.61669 9.50987 3.38227C9.27545 3.14785 9.14375 2.82991 9.14375 2.49839C9.14375 2.16687 9.27545 1.84892 9.50987 1.6145C9.74429 1.38008 10.0622 1.24839 10.3937 1.24839H27.5C28.163 1.24839 28.7989 1.51178 29.2678 1.98062C29.7366 2.44946 30 3.08535 30 3.74839Z" fill="#14FC8C"/>
</svg>
