<svg preserveAspectRatio="none" width="100%" height="100%" overflow="visible" style="display: block;" viewBox="0 0 48 48" fill="none" xmlns="http://www.w3.org/2000/svg">
<g id="ThermometerHot">
<path id="Vector" d="M30 10.5C30 7.91414 28.9728 5.43419 27.1443 3.60571C25.3158 1.77723 22.8359 0.75 20.25 0.75C17.6641 0.75 15.1842 1.77723 13.3557 3.60571C11.5272 5.43419 10.5 7.91414 10.5 10.5V28.2544C9.21341 30.0476 8.44625 32.1608 8.28291 34.3618C8.11957 36.5627 8.56638 38.7661 9.57418 40.7296C10.582 42.693 12.1118 44.3405 13.9952 45.4909C15.8787 46.6413 18.043 47.2499 20.25 47.2499C22.457 47.2499 24.6213 46.6413 26.5048 45.4909C28.3883 44.3405 29.918 42.693 30.9258 40.7296C31.9336 38.7661 32.3804 36.5627 32.2171 34.3618C32.0538 32.1608 31.2866 30.0476 30 28.2544V10.5ZM20.25 42.75C18.829 42.75 17.4372 42.3464 16.2367 41.586C15.0362 40.8257 14.0764 39.7399 13.4692 38.4552C12.8619 37.1705 12.6321 35.7397 12.8065 34.3294C12.9809 32.9191 13.5524 31.5874 14.4544 30.4894C14.8062 30.0811 14.9998 29.5602 15 29.0212V10.5C15 9.10761 15.5531 7.77226 16.5377 6.78769C17.5223 5.80312 18.8576 5.25 20.25 5.25C21.6424 5.25 22.9777 5.80312 23.9623 6.78769C24.9469 7.77226 25.5 9.10761 25.5 10.5V29.0194C25.4995 29.5453 25.6833 30.0548 26.0194 30.4594C26.9291 31.5552 27.508 32.8874 27.6884 34.3001C27.8688 35.7128 27.6432 37.1477 27.038 38.4369C26.4328 39.7262 25.4731 40.8164 24.271 41.5802C23.0689 42.344 21.6742 42.7498 20.25 42.75ZM24.75 35.25C24.7502 36.04 24.5424 36.816 24.1475 37.5002C23.7526 38.1844 23.1846 38.7526 22.5006 39.1477C21.8165 39.5427 21.0405 39.7508 20.2505 39.7509C19.4606 39.751 18.6845 39.5431 18.0004 39.1482C17.3162 38.7533 16.7481 38.1852 16.3531 37.5011C15.958 36.8171 15.75 36.041 15.75 35.2511C15.75 34.4611 15.9579 33.6851 16.3528 33.001C16.7478 32.3168 17.3159 31.7487 18 31.3538V10.5C18 9.90326 18.2371 9.33097 18.659 8.90901C19.081 8.48705 19.6533 8.25 20.25 8.25C20.8467 8.25 21.419 8.48705 21.841 8.90901C22.263 9.33097 22.5 9.90326 22.5 10.5V31.3538C23.184 31.7486 23.752 32.3166 24.1469 33.0005C24.5419 33.6844 24.7499 34.4602 24.75 35.25ZM32.6138 15.5625C32.2884 15.0624 32.175 14.4537 32.2984 13.87C32.4218 13.2863 32.772 12.7756 33.2719 12.45C36.4256 10.3875 38.9569 11.475 40.6331 12.1894C42.15 12.8381 42.6825 13.0087 43.7719 12.2981C44.2719 11.9724 44.8808 11.8587 45.4647 11.9819C46.0486 12.1052 46.5596 12.4553 46.8853 12.9553C47.211 13.4553 47.3248 14.0643 47.2015 14.6481C47.0783 15.232 46.7281 15.743 46.2281 16.0687C44.865 16.9462 43.62 17.25 42.5081 17.25C41.0475 17.25 39.8194 16.725 38.8669 16.3125C37.35 15.6637 36.8175 15.4931 35.7281 16.2037C35.23 16.5313 34.6222 16.6477 34.0383 16.5275C33.4543 16.4073 32.942 16.0602 32.6138 15.5625ZM46.8844 20.4562C47.2099 20.9561 47.3236 21.5647 47.2006 22.1484C47.0775 22.732 46.7277 23.2429 46.2281 23.5687C44.865 24.4556 43.62 24.7594 42.5081 24.7594C41.0475 24.7594 39.8194 24.2344 38.8669 23.8219C37.35 23.1731 36.8175 23.0025 35.7281 23.7131C35.2281 24.0388 34.6192 24.1526 34.0353 24.0293C33.4514 23.9061 32.9404 23.556 32.6147 23.0559C32.289 22.5559 32.1752 21.947 32.2985 21.3631C32.4217 20.7792 32.7719 20.2682 33.2719 19.9425C36.4256 17.88 38.9569 18.9675 40.6331 19.6819C42.15 20.3306 42.6825 20.5013 43.7719 19.7906C44.2717 19.4651 44.8803 19.3514 45.464 19.4744C46.0476 19.5975 46.5585 19.9473 46.8844 20.4469V20.4562Z" fill="url(#paint0_linear_0_9)"/>
</g>
<defs>
<linearGradient id="paint0_linear_0_9" x1="31.5318" y1="-15.518" x2="71.4628" y2="46.6719" gradientUnits="userSpaceOnUse">
<stop offset="0.220853" stop-color="#1265FF"/>
<stop offset="0.728478" stop-color="#69CDEB"/>
<stop offset="1" stop-color="#46F5A0"/>
</linearGradient>
</defs>
</svg>
