<svg preserveAspectRatio="none" width="100%" height="100%" overflow="visible" style="display: block;" viewBox="0 0 18.1667 16.5" fill="none" xmlns="http://www.w3.org/2000/svg">
<g id="Group">
<path id="Vector" d="M1.58333 0.75L16.5833 15.75" stroke="var(--stroke-0, #737373)" stroke-width="1.5" stroke-linecap="round" stroke-linejoin="round"/>
<path id="Vector_2" d="M7.90333 7.0725C7.5906 7.38501 7.41482 7.80896 7.41466 8.25108C7.41451 8.69319 7.58999 9.11727 7.9025 9.43C8.21501 9.74273 8.63896 9.91851 9.08108 9.91867C9.52319 9.91883 9.94727 9.74335 10.26 9.43083" stroke="var(--stroke-0, #737373)" stroke-width="1.5" stroke-linecap="round" stroke-linejoin="round"/>
<path id="Vector_3" d="M6.88583 2.72083C7.60035 2.51643 8.34016 2.41403 9.08333 2.41667C12.4167 2.41667 15.1942 4.36083 17.4167 8.25C16.7683 9.38417 16.0733 10.3533 15.3308 11.1567M13.5475 12.7075C12.1883 13.6242 10.7017 14.0833 9.08333 14.0833C5.75 14.0833 2.9725 12.1392 0.75 8.25C1.89083 6.25417 3.1775 4.77083 4.61 3.79917" stroke="var(--stroke-0, #737373)" stroke-width="1.5" stroke-linecap="round" stroke-linejoin="round"/>
</g>
</svg>
