<svg preserveAspectRatio="none" width="100%" height="100%" overflow="visible" style="display: block;" viewBox="0 0 52 73" fill="none" xmlns="http://www.w3.org/2000/svg">
<path id="Vector" d="M31.6851 28.2066C35.8597 33.9762 38.344 40.4137 39.7016 48.8768L33.4021 49.9057C32.2056 42.4608 30.0592 36.8421 26.4212 31.8483C26.2227 31.5735 25.7988 31.6705 25.7344 31.9991C23.3198 45.3752 23.9261 59.6186 27.7841 73H21.1627C17.6589 59.8502 17.0472 45.9839 19.1398 32.8018C19.1935 32.4409 18.7642 32.2092 18.5013 32.4678C15.6842 35.1721 12.6901 38.9646 10.3989 43.3389L4.74874 40.3598C7.71066 34.698 11.9818 29.3918 16.2369 25.9117C16.5159 25.6801 16.3496 25.2222 15.9901 25.233C10.7531 25.373 6.48726 26.8976 2.62924 28.6538L0 22.8142C4.78093 20.6647 10.4633 18.6662 17.6589 18.8331C18.0023 18.8439 18.1847 18.413 17.9271 18.1759C15.8559 16.2366 13.334 14.7605 10.3184 13.6993L12.4218 7.64962C16.8003 9.18493 20.4705 11.5175 23.3788 14.5989C23.572 14.8036 23.9047 14.739 24.0066 14.475C25.9598 9.37348 28.3744 4.51435 31.2343 0L36.6216 3.44233C34.5182 6.77692 32.667 10.3108 31.0895 13.9956C30.9446 14.3296 31.3095 14.6582 31.626 14.4804C35.9992 12.0239 41.8962 9.66977 50.1542 7.84894L51.5224 14.0979C43.184 15.9457 37.5928 18.316 33.6221 20.7348C33.3377 20.9072 33.4021 21.3381 33.7241 21.4297C40.1845 23.2775 46.3927 26.6121 52 31.315L47.9059 36.2226C44.2732 33.1789 38.8967 29.5803 32.0982 27.6141C31.7495 27.5171 31.4704 27.9157 31.6851 28.2066Z" fill="var(--fill-0, #FFFCDC)"/>
</svg>
