<svg width="349" height="311" viewBox="0 0 349 311" fill="none" xmlns="http://www.w3.org/2000/svg">
<g clip-path="url(#clip0_1381_813)">
<mask id="mask0_1381_813" style="mask-type:alpha" maskUnits="userSpaceOnUse" x="0" y="0" width="349" height="490">
<path d="M212.656 189.332C240.674 228.059 257.347 271.27 266.459 328.077L224.18 334.983C216.149 285.011 201.744 247.296 177.327 213.776C175.995 211.932 173.15 212.583 172.717 214.789C156.512 304.573 160.581 400.179 186.474 490H142.034C118.518 401.734 114.413 308.659 128.458 220.176C128.818 217.754 125.937 216.199 124.172 217.934C105.265 236.087 85.1703 261.543 69.7928 290.905L31.8713 270.908C51.7504 232.905 80.4166 197.287 108.975 173.928C110.847 172.373 109.731 169.3 107.318 169.372C72.1696 170.312 43.5395 180.545 17.6463 192.333L0 153.136C32.0874 138.709 70.225 125.293 118.518 126.414C120.823 126.487 122.047 123.594 120.319 122.003C106.418 108.985 89.4918 99.0776 69.2526 91.9541L83.3696 51.3468C112.756 61.6523 137.389 77.3094 156.908 97.9928C158.204 99.3668 160.437 98.9329 161.121 97.1611C174.23 62.9179 190.436 30.3018 209.63 0L245.787 23.106C231.67 45.4889 219.246 69.2097 208.658 93.9429C207.686 96.1848 210.135 98.3905 212.259 97.1973C241.61 80.7084 281.188 64.9067 336.612 52.6847L345.795 94.6299C289.831 107.033 252.306 122.943 225.656 139.179C223.747 140.336 224.18 143.229 226.34 143.843C269.7 156.246 311.367 178.629 349 210.196L321.522 243.138C297.142 222.708 261.057 198.553 215.429 185.355C213.088 184.704 211.215 187.38 212.656 189.332Z" fill="#FFFCDC"/>
</mask>
<g mask="url(#mask0_1381_813)">
<g style="mix-blend-mode:overlay" filter="url(#filter0_f_1381_813)">
<ellipse cx="175" cy="-24" rx="538" ry="320" fill="#3478F6"/>
</g>
</g>
</g>
<defs>
<filter id="filter0_f_1381_813" x="-563" y="-544" width="1476" height="1040" filterUnits="userSpaceOnUse" color-interpolation-filters="sRGB">
<feFlood flood-opacity="0" result="BackgroundImageFix"/>
<feBlend mode="normal" in="SourceGraphic" in2="BackgroundImageFix" result="shape"/>
<feGaussianBlur stdDeviation="100" result="effect1_foregroundBlur_1381_813"/>
</filter>
<clipPath id="clip0_1381_813">
<rect width="349" height="311" fill="white"/>
</clipPath>
</defs>
</svg>
