<svg preserveAspectRatio="none" width="100%" height="100%" overflow="visible" style="display: block;" viewBox="0 0 94.9994 19.1005" fill="none" xmlns="http://www.w3.org/2000/svg">
<g id="Group 48095513">
<g id="Group">
<path id="Vector" d="M21.8182 5.9221C19.0877 5.9221 17.0261 7.85174 17.0261 10.3734C17.0261 12.895 19.0877 14.8247 21.8182 14.8247C24.5487 14.8247 26.6075 12.895 26.6075 10.3734C26.6075 7.85174 24.5459 5.9221 21.8182 5.9221ZM21.8182 13.0106C20.167 13.0106 19.0877 11.9098 19.0877 10.372C19.0877 8.83419 20.167 7.73052 21.8182 7.73052C23.4694 7.73052 24.5459 8.83419 24.5459 10.372C24.5459 11.9098 23.4666 13.0106 21.8182 13.0106Z" fill="var(--fill-0, #3478F6)"/>
<path id="Vector_2" d="M32.855 5.92085C31.8699 5.92085 30.9213 6.19712 30.2215 6.76798H30.0556V6.25914H28.0531V17.3042H30.0556V14.0285C30.8314 14.5345 31.7912 14.8234 32.855 14.8234C35.5799 14.8234 37.6429 12.8966 37.6429 10.375C37.6429 7.85332 35.5813 5.92226 32.855 5.92226V5.92085ZM32.855 13.0108C31.2024 13.0108 30.1217 11.9085 30.1217 10.3736C30.1217 8.83858 31.2024 7.73069 32.855 7.73069C34.5076 7.73069 35.5799 8.83435 35.5799 10.3736C35.5799 11.9128 34.5006 13.0108 32.855 13.0108Z" fill="var(--fill-0, #3478F6)"/>
<path id="Vector_3" d="M68.0779 9.18079V14.6484H66.2159V9.68681C66.2159 8.45911 65.7507 7.78536 64.9033 7.78536C64.0559 7.78536 63.2943 8.55214 62.4722 10.3493V14.6484H60.6129V9.68681C60.6129 8.45911 60.1478 7.78536 59.3004 7.78536C58.453 7.78536 57.6885 8.55214 56.8664 10.3493V14.6484H55.0072V6.31945H56.8664V7.57675H57.1503C57.8993 6.49423 58.7931 5.94451 59.8077 5.94451C60.9516 5.94451 61.8103 6.55202 62.2333 7.65568H62.5691C63.3336 6.55202 64.3215 5.94451 65.3587 5.94451C67.0352 5.94451 68.0779 7.18349 68.0779 9.18079Z" fill="var(--fill-0, #3478F6)"/>
<path id="Vector_4" d="M72.5674 1.79773C71.8943 1.79773 71.3659 2.32771 71.3659 3.04375C71.3659 3.71892 71.8957 4.2489 72.5674 4.2489C73.2799 4.2489 73.8097 3.71892 73.8097 3.04375C73.8097 2.32912 73.2813 1.79773 72.5674 1.79773ZM73.7844 12.9922V6.26452H69.7961V7.9179H72.0179V8.43097L72.0193 12.4495V12.9936H69.7961V14.647H75.8319V12.9936H73.7844V12.9922Z" fill="var(--fill-0, #3478F6)"/>
<path id="Vector_5" d="M83.8745 9.80023L80.7309 9.2477C80.024 9.13071 79.5743 8.99257 79.5743 8.49924C79.5743 7.94952 80.4372 7.73245 81.4588 7.73245C82.8529 7.73245 83.7368 8.10739 84.8175 8.83611L85.7197 7.10239C84.5997 6.37226 83.1691 5.93953 81.5783 5.93953C79.4155 5.93953 77.6294 6.88392 77.6294 8.61764C77.6294 10.2315 78.9054 10.8236 80.3571 11.0815L83.1283 11.5537C83.8535 11.6707 84.2076 11.8088 84.2076 12.281C84.2076 12.8519 83.1283 13.0873 82.0673 13.0873C80.5566 13.0873 79.5139 12.7123 78.1592 11.7496L77.1993 13.5806C78.5934 14.4277 80.4203 14.8421 82.0097 14.8421C84.15 14.8421 86.1539 13.8977 86.1539 12.1429C86.1539 10.7658 85.1899 10.0356 83.8759 9.79882L83.8745 9.80023Z" fill="var(--fill-0, #3478F6)"/>
<path id="Vector_6" d="M44.9239 12.281C44.3941 12.8617 43.8643 13.0943 43.2347 13.0943C42.2749 13.0943 41.6945 12.4811 41.6945 11.4338V7.90296H45.4705V6.25804H41.6945V3.5461H39.8676V6.25522H37.8397V7.90296H39.8072V11.6509C39.8072 13.6271 41.034 14.8392 43.0534 14.8392C44.2957 14.8392 45.3553 14.3403 46.0833 13.4114L44.9239 12.2824V12.281Z" fill="var(--fill-0, #3478F6)"/>
<path id="Vector_7" d="M93.8398 12.281C93.31 12.8617 92.7802 13.0943 92.1506 13.0943C91.1908 13.0943 90.6104 12.4811 90.6104 11.4338V7.90296H94.3864V6.25804H90.6104V3.5461H88.7835V6.25522H86.7556V7.90296H88.7231V11.6509C88.7231 13.6271 89.9499 14.8392 91.9693 14.8392C93.2116 14.8392 94.2712 14.3403 94.9992 13.4114L93.8398 12.2824V12.281Z" fill="var(--fill-0, #3478F6)"/>
<path id="Vector_8" d="M50.1635 1.79773C49.4904 1.79773 48.962 2.32771 48.962 3.04375C48.962 3.71892 49.4918 4.2489 50.1635 4.2489C50.876 4.2489 51.4058 3.71892 51.4058 3.04375C51.4058 2.32912 50.8774 1.79773 50.1635 1.79773ZM51.3805 12.9922V6.26452H47.3923V7.9179H49.6141V8.43097L49.6155 12.4495V12.9936H47.3923V14.647H53.4281V12.9936H51.3805V12.9922Z" fill="var(--fill-0, #3478F6)"/>
</g>
<path id="Vector_9" d="M8.29832 7.38029C9.39165 8.8899 10.0423 10.5743 10.3978 12.7887L8.74802 13.0579C8.43464 11.1099 7.87252 9.63977 6.91972 8.33314C6.86772 8.26125 6.7567 8.28662 6.73984 8.3726C6.10745 11.8725 6.26625 15.5993 7.27667 19.1005H5.54252C4.62486 15.6599 4.46465 12.0317 5.01272 8.58262C5.02677 8.48818 4.91435 8.42757 4.84549 8.49523C4.1077 9.20282 3.32354 10.1951 2.72348 11.3397L1.24369 10.5602C2.01942 9.07878 3.13804 7.69039 4.25245 6.77983C4.32553 6.71923 4.28196 6.59942 4.18781 6.60223C2.81623 6.63888 1.69901 7.03778 0.688599 7.49729L0 5.96936C1.25213 5.40695 2.74034 4.88402 4.62486 4.92771C4.7148 4.93053 4.76258 4.81777 4.69512 4.75575C4.15267 4.24832 3.49218 3.86211 2.7024 3.58443L3.25328 2.00153C4.40001 2.40325 5.36124 3.01357 6.12291 3.81982C6.1735 3.87339 6.26063 3.85647 6.28733 3.7874C6.79886 2.45258 7.43125 1.18119 8.18028 0L9.5912 0.900689C9.04032 1.77319 8.55549 2.69784 8.14233 3.66196C8.10439 3.74935 8.19995 3.83533 8.28286 3.78881C9.42819 3.14607 10.9726 2.5301 13.1354 2.05368L13.4937 3.68874C11.3099 4.17221 9.84556 4.7924 8.80564 5.42528C8.73116 5.47038 8.74802 5.58314 8.83234 5.60711C10.5243 6.09058 12.1503 6.96307 13.6188 8.19359L12.5466 9.47767C11.5952 8.68129 10.1871 7.73972 8.40653 7.22525C8.31519 7.19987 8.24211 7.30418 8.29832 7.38029Z" fill="var(--fill-0, #3478F6)"/>
</g>
</svg>
