<svg preserveAspectRatio="none" width="100%" height="100%" overflow="visible" style="display: block;" viewBox="0 0 149 29.9577" fill="none" xmlns="http://www.w3.org/2000/svg">
<g id="Group 48095513">
<g id="Group">
<path id="Vector" d="M34.2212 9.28725C29.9386 9.28725 26.7051 12.3137 26.7051 16.2687C26.7051 20.2238 29.9386 23.2503 34.2212 23.2503C38.5037 23.2503 41.7328 20.2238 41.7328 16.2687C41.7328 12.3137 38.4993 9.28725 34.2212 9.28725ZM34.2212 20.405C31.6313 20.405 29.9386 18.6785 29.9386 16.2665C29.9386 13.8546 31.6313 12.1236 34.2212 12.1236C36.811 12.1236 38.4993 13.8546 38.4993 16.2665C38.4993 18.6785 36.8066 20.405 34.2212 20.405Z" fill="var(--fill-0, #3478F6)"/>
<path id="Vector_2" d="M51.5314 9.28523C49.9864 9.28523 48.4986 9.71854 47.4009 10.6139H47.1409V9.81581H44V27.1391H47.1409V22.0014C48.3575 22.795 49.8629 23.2482 51.5314 23.2482C55.8052 23.2482 59.0408 20.2262 59.0408 16.2712C59.0408 12.3161 55.8074 9.28744 51.5314 9.28744V9.28523ZM51.5314 20.4052C48.9394 20.4052 47.2444 18.6764 47.2444 16.2689C47.2444 13.8615 48.9394 12.1238 51.5314 12.1238C54.1235 12.1238 55.8052 13.8548 55.8052 16.2689C55.8052 18.6831 54.1125 20.4052 51.5314 20.4052Z" fill="var(--fill-0, #3478F6)"/>
<path id="Vector_3" d="M106.776 14.3984V22.9738H103.855V15.192C103.855 13.2665 103.126 12.2098 101.797 12.2098C100.468 12.2098 99.2731 13.4124 97.9837 16.2311V22.9738H95.0677V15.192C95.0677 13.2665 94.3381 12.2098 93.009 12.2098C91.6799 12.2098 90.4809 13.4124 89.1915 16.2311V22.9738H86.2755V9.9106H89.1915V11.8826H89.6367C90.8115 10.1847 92.2133 9.32254 93.8047 9.32254C95.5988 9.32254 96.9456 10.2754 97.609 12.0064H98.1358C99.3348 10.2754 100.884 9.32254 102.511 9.32254C105.14 9.32254 106.776 11.2658 106.776 14.3984Z" fill="var(--fill-0, #3478F6)"/>
<path id="Vector_4" d="M113.817 2.81843C112.761 2.81843 111.933 3.64967 111.933 4.77272C111.933 5.83167 112.764 6.6629 113.817 6.6629C114.935 6.6629 115.766 5.83167 115.766 4.77272C115.766 3.65188 114.937 2.81843 113.817 2.81843ZM115.726 20.3761V9.82425H109.471V12.4174H112.955V13.2222L112.958 19.525V20.3783H109.471V22.9715H118.937V20.3783H115.726V20.3761Z" fill="var(--fill-0, #3478F6)"/>
<path id="Vector_5" d="M131.552 15.3697L126.621 14.5031C125.512 14.3196 124.807 14.103 124.807 13.3292C124.807 12.467 126.16 12.1266 127.763 12.1266C129.949 12.1266 131.336 12.7146 133.031 13.8576L134.446 11.1384C132.689 9.99322 130.445 9.31453 127.95 9.31453C124.558 9.31453 121.756 10.7957 121.756 13.5149C121.756 16.0462 123.758 16.9747 126.035 17.3793L130.381 18.1199C131.518 18.3034 132.074 18.52 132.074 19.2606C132.074 20.156 130.381 20.5252 128.717 20.5252C126.348 20.5252 124.712 19.9371 122.587 18.4272L121.082 21.2989C123.269 22.6276 126.134 23.2775 128.627 23.2775C131.984 23.2775 135.127 21.7963 135.127 19.044C135.127 16.8841 133.615 15.7389 131.554 15.3675L131.552 15.3697Z" fill="var(--fill-0, #3478F6)"/>
<path id="Vector_6" d="M70.4605 19.2605C69.6296 20.1714 68.7986 20.5361 67.8112 20.5361C66.3058 20.5361 65.3955 19.5745 65.3955 17.9319V12.394H71.3179V9.81408H65.3955V5.56062H62.5301V9.80966H59.3496V12.394H62.4354V18.2724C62.4354 21.3718 64.3596 23.273 67.5269 23.273C69.4753 23.273 71.1372 22.4904 72.2789 21.0336L70.4605 19.2628V19.2605Z" fill="var(--fill-0, #3478F6)"/>
<path id="Vector_7" d="M147.181 19.2605C146.35 20.1714 145.519 20.5361 144.532 20.5361C143.026 20.5361 142.116 19.5745 142.116 17.9319V12.394H148.039V9.81408H142.116V5.56062H139.251V9.80966H136.07V12.394H139.156V18.2724C139.156 21.3718 141.08 23.273 144.248 23.273C146.196 23.273 147.858 22.4904 149 21.0336L147.181 19.2628V19.2605Z" fill="var(--fill-0, #3478F6)"/>
<path id="Vector_8" d="M78.6785 2.81843C77.6228 2.81843 76.794 3.64967 76.794 4.77272C76.794 5.83167 77.625 6.6629 78.6785 6.6629C79.796 6.6629 80.627 5.83167 80.627 4.77272C80.627 3.65188 79.7982 2.81843 78.6785 2.81843ZM80.5873 20.3761V9.82425H74.332V12.4174H77.8167V13.2222L77.8189 19.525V20.3783H74.332V22.9715H83.7987V20.3783H80.5873V20.3761Z" fill="var(--fill-0, #3478F6)"/>
</g>
<path id="Vector_9" d="M13.0153 11.5754C14.7301 13.9431 15.7506 16.5849 16.3082 20.058L13.7206 20.4802C13.2291 17.425 12.3474 15.1192 10.853 13.0699C10.7715 12.9571 10.5974 12.9969 10.5709 13.1318C9.57906 18.621 9.82812 24.4662 11.4129 29.9577H8.69301C7.25372 24.5613 7.00245 18.8708 7.86206 13.4612C7.8841 13.313 7.70777 13.218 7.59977 13.3241C6.44261 14.4339 5.21272 15.9902 4.27156 17.7854L1.95064 16.5628C3.1673 14.2393 4.92178 12.0618 6.66963 10.6336C6.78425 10.5386 6.71592 10.3507 6.56824 10.3551C4.41703 10.4126 2.66477 11.0382 1.08001 11.7589L0 9.36246C1.96386 8.48038 4.29801 7.6602 7.25372 7.72873C7.39479 7.73315 7.46973 7.55629 7.36393 7.45902C6.51314 6.66316 5.47721 6.05741 4.2385 5.6219L5.10251 3.13924C6.90107 3.7693 8.40868 4.72655 9.6033 5.99109C9.68265 6.0751 9.81931 6.04857 9.86118 5.94025C10.6635 3.84668 11.6553 1.8526 12.8301 0L15.043 1.41266C14.179 2.7811 13.4186 4.23135 12.7706 5.74349C12.7111 5.88056 12.861 6.01541 12.991 5.94246C14.7874 4.93436 17.2097 3.96827 20.6018 3.22104L21.1639 5.78549C17.7387 6.54378 15.442 7.5165 13.8109 8.50912C13.6941 8.57986 13.7206 8.75672 13.8528 8.7943C16.5066 9.55259 19.0567 10.921 21.36 12.851L19.6783 14.865C18.1861 13.6159 15.9776 12.1391 13.185 11.3322C13.0417 11.2924 12.9271 11.456 13.0153 11.5754Z" fill="var(--fill-0, #3478F6)"/>
</g>
</svg>
